<svg xmlns="http://www.w3.org/2000/svg" xmlns:i="http://ns.adobe.com/AdobeIllustrator/10.0/" id="Layer_1" viewBox="0 0 1080 1080"><defs><style>      .st0 {        fill: #fff;      }      .st1 {        fill: #53deff;      }      .st2 {        fill: #8705e4;      }    </style></defs><path class="st0" d="M398,226.7s-162.6-11.1-195.9,135.2c0,0-128.3,27.9-101.6,212.9,0,0,12.2,90.1,91.1,125.8,0,0-8.5,110.8,93,126.5,0,0-59,114.2,17.2,187.2,30.2,28.9,45.3-22.2,45.3-22.2,0,0,10.8-53.1,25.7-83.9,22.5-46.8,41.8-73.1,90.8-102.3,9.3-5.6,27.4-6.5,27.4-6.5,0,0,74.5,22.5,96.9,13.3,61.6-25.3,111-40.4,122-137.5,0,0,110.5,54.5,170.6-12.5,60.2-67,24.4-90,24.4-90,0,0,94.8,7.2,99.1-116,2.5-77-66.8-136.3-109.8-133.2,0,0-1.4-69.6-61.8-99.6-60.4-30-72-41.8-184-12.9,0,0-102.8-83.3-250.4,15.7h0Z"></path><path class="st1" d="M1026.5,719.3c21.2-6.5,34-18.9,37.9-36.7,9.8-42.9-4.9-83.1-41.3-113-.5-.4-1-.8-1.5-1.2,25.7-32.1,34.7-64.4,25.2-91.1-6-17-19.1-30.8-39-41.2-2.5-20.4-7.8-37.5-11.8-46.8,13.2-41.8,5.5-66.4-4.4-80.1-8.2-11.3-20.5-18.8-35.7-22.2-8.5-11.8-19.9-23-33.9-32.9,8-11.8,14.8-22.9,20.1-32.9,16-29.9,20.9-52.6,14.5-67.4-9.4-21.6-60.9-33.2-132.3-49.3-12.9-2.9-26.5-6-40.6-9.3-37-31.1-80.6-48.3-122.6-36.9-.8.2-1.6.4-2.4.7h0s-.8.2-.8.2c-4.6,1.3-9,2.7-13.3,4.3l-6.2,2,.4.2c-18.1,7.1-33.7,16.4-46.6,27.7-7.5-2.7-15-5-22.4-6.6l-2.8-.8v.2c-6.1-1.2-12.1-2.1-18-2.7-40.8-30.4-86.1-51.9-127.5-60.7-47.9-10.2-89.7-3.2-120.7,20.2-28.9,21.8-51.3,66.6-61.8,123.1-7.4-1.3-14.6-2.1-21.9-2.3-2.4-5.1-5.1-10-7.9-14.5-41.1-66.1-80.8-99.3-112-93.6-17.1,3.2-29.3,17.8-33.7,40.3-6.3,32.8,4.9,78.4,35.6,116.6-54,52.4-83.9,139.2-73.2,222.4,2,15.4,5.3,30.3,9.8,44.6-.7,2.3-1.4,4.6-2.1,6.9-17.4,59-17,120.4.8,178.9,2.1,70.7,32.2,140,83.7,182.8,5.2,4.3,10.6,8.3,16.1,12,28.9,57.8,66.3,103.4,110.2,134,61.2,42.6,138.1,67.1,210.9,67.1,26.6,0,52-3.3,75.4-9.7,21.6-5.9,41.7-14.6,59.6-25.8,20.6-3.9,40.1-8.7,58.5-14.4,2.4,5.7,5.1,10.9,8.2,15.6,8.3,12.8,20.1,28.6,32.8,28.6s4.3-.5,6.5-1.5c5.4-2.5,17.6-8.2,19-69.5,23.2-12.1,43.3-26,59.7-41.5,3.8-3.6,7.5-7.6,11.1-11.8,32.8.4,65-10.8,92.2-31.9,60,16.9,109.5,4.2,147.6-38.1,31.1-34.5,41.5-63.4,31-85.7h0c-10.4-22-40-36.4-90.3-43.8,1.4-2.5,2.7-5.1,4-7.7,22,1.4,40.7-.2,55.7-4.8h0ZM1051.1,679h0c-2.7,12.3-12.2,20.9-28.3,25.9-11.9,3.6-27.2,5.1-45.3,4.3,6-14.5,10.6-29.6,13.8-45.3,4.5-22.1,6-45.3,4.7-68.9,4.1-3.6,8-7.4,11.8-11.2,1.5-1.5,2.9-3,4.3-4.6.9.7,1.8,1.4,2.7,2.2,22.5,18.5,47,50.4,36.3,97.6h0ZM993.1,566.6c2.5,1.4,4.9,2.9,7.2,4.4-.6.7-1.3,1.3-1.9,2-1.3,1.3-2.6,2.6-3.9,3.9-.4-3.4-.8-6.9-1.3-10.3h0ZM1009.2,453.8c15,9.6,21.9,20.2,24.9,28.8,7.5,21.3-1.2,49.3-24,77.3-6.3-4.2-13.1-8.1-20.2-11.7-.9-4.4-1.9-8.9-3-13.3,4.6-6.4,8.6-13.3,11.8-20.9,8.5-19.7,11-40.8,10.5-60.2h0ZM697.1,879.3c-1.4-1.3-2.9-2.7-4.3-4.1,1.3-.5,2.5-1.1,3.8-1.7.2,1.9.3,3.8.5,5.8h0ZM687.3,889.8c1.8,1.6,3.5,3.3,5.3,4.8-2.5.6-5,1.1-7.6,1.5.7-2.1,1.5-4.2,2.2-6.3ZM680.2,824.7c.8-7.1,1.4-14.1,1.6-21,.3-.4.7-.9,1-1.3,2,.6,4.1,1.1,6.2,1.6.2,1.5.4,3,.6,4.5-2.9,5.4-6,10.8-9.4,16.1h0ZM667.9,892c-.5-2.5-1-4.9-1.4-7.4,1.3-.4,2.6-.7,3.8-1.1,1.5-.4,3-.9,4.5-1.4-1.8,5.2-3.5,10.3-5.4,15.2-.9,0-1.8,0-2.7,0,1-1.5,1.5-3.3,1.2-5.3h0ZM621.4,877.2c-4,.2-8,.3-12,.2-2.9-2.4-5.4-4.9-7.7-7.6,6.9-4.1,13.4-8.4,19.8-12.7,7.6,0,15,.5,22.2,1-.3,1.7-.6,3.4-.8,5.1-6.8,5-14,9.5-21.4,13.8h0ZM637.5,907.9c-.2,2.8-.4,5.6-.5,8.3-9.1,2.8-18.4,5.3-27.8,7.6,8.4-5.4,16.6-11.1,24.6-17.1,1.2.4,2.5.8,3.7,1.1h0ZM503.5,952.5c.8,1,1.6,2.1,2.4,3.1-5.6,1.7-11.2,3.2-16.8,4.6-2.7.7-5.4,1.3-8.2,1.9,1.5-3,3.1-6.1,4.8-9.2,5.9,0,11.8-.1,17.8-.3h0ZM497.5,889c.9-1,1.7-2.1,2.6-3.1,1,1.1,2.1,2.2,3.1,3.3-1.9,0-3.8-.1-5.7-.2h0ZM503.2,850.7c-4.7-2.3-9.5-4.8-14.3-7.5,6.8,1,13.8,1.8,20.8,2.2-.3.7-.7,1.4-1,2-.8,1.6-1.7,3.1-2.5,4.6-1-.5-2-.9-3-1.4h0ZM474.4,826c-2.6-4.6-5.2-9.3-7.7-14.2,14.2,6.9,29.3,12.9,45.1,17.7,1.5.7,2.9,1.3,4.4,1.9h0c-14.4-.5-28.5-2.2-41.9-5.4h0ZM387,967.8c-3.1-5.3-6.3-10.9-9.5-16.8,9.4-.7,18.7-2.2,27.9-4.4,21,3.4,42.8,5.5,65.1,6.1-2.2,4.4-4.4,8.6-6.4,12.7-26.6,4.4-52.3,5.2-77,2.4h0ZM456.2,980.7c-9.5,18.1-18.6,32.5-27.7,32.3-8.9-.2-20.3-12.3-32.5-30.7,19.7,1.6,39.8,1.1,60.2-1.6h0ZM184.2,731.7c-7.3-11.8-14.1-24-20.1-36.6,6.3,3.2,13,5.7,20,7.4-1.2,8.4-1.2,18.5.1,29.3h0ZM204.5,822c-4.1-5.3-7.9-10.8-11.5-16.4,2.9,2.4,5.9,4.8,9,7.1.8,3.1,1.6,6.3,2.5,9.3ZM222.1,806.9c3.2,2.8,6.8,5.5,10.9,8,.4.7.7,1.5,1.1,2.2-7-4-13.6-8.2-19.8-12.6-.5-2.2-1-4.5-1.4-6.8,2.9,3.2,5.9,6.3,9.2,9.2h0ZM219.7,824.6c8.4,5.2,17.5,10,27.1,14.5,4.4,6.7,9.1,13.1,14.2,19.2-1,4.6-1.8,9.1-2.4,13.6-2.4-1-4.8-2.1-7.1-3.2-7.5-5.7-14.6-11.8-21.2-18.1-4-8.2-7.5-16.9-10.5-26h0ZM229.4,877.5c-1.6-.1-3.3-.3-4.9-.4-2.7-3.3-5.3-6.6-7.9-10,3.1,1.6,6.2,3.3,9.3,4.9,1.1,1.9,2.3,3.7,3.5,5.6ZM240.8,893c5,6.1,10.5,11.7,16.3,16.9,0,.2,0,.4,0,.6-6.4-5.5-12.6-11.4-18.6-17.6.7,0,1.5,0,2.2,0h0ZM195.2,771.3c.6,6.8,1.5,13.5,2.5,20-12.7-11.5-22.5-24-29.3-37.2-4.3-12.8-7.7-26.2-10-40.1,10.7,20.2,23.1,39.5,36.8,57.4h0ZM205.1,844.5c-2.2-1.3-4.4-2.6-6.6-4-1.9-3.1-3.8-6.4-5.7-9.6-1.2-2.1-2.4-4.3-3.6-6.5,4.9,6.9,10.2,13.7,15.9,20.1h0ZM218.5,891.4c12.4,14.1,25.9,26.8,40.3,37.9.2,1.8.5,3.5.7,5.1,1.2,8,2.7,15.7,4.4,22.9-29.5-20.7-56.4-45.4-80-73.3,11.2,3.5,22.7,6,34.5,7.4h0ZM274.9,932.1c-4.2-27.9-5.2-68.1,13-103.3,16.3-.6,35.3-4.7,57.2-14,4-1.7,5.8-6.3,4.2-10.2-1.7-4-6.3-5.8-10.2-4.2-44.2,18.7-81.1,16.9-106.8-5.3-27.7-24-36.3-65.2-32.8-90.2,3,.3,6.1.4,9.2.4,5,0,10.1-.3,15.4-1,4.3-.5,7.3-4.4,6.8-8.7-.5-4.3-4.4-7.3-8.7-6.8-29.1,3.5-52.5-3.8-71.4-22.4-17.8-17.5-28.2-42-34.5-58.8-12.5-33.6-25.9-106.2,3.5-165.3,19.9-40.1,56.4-68.4,108.5-84,4.1-1.2,6.5-5.6,5.2-9.7-1.2-4.1-5.6-6.5-9.7-5.2-5,1.5-9.8,3.1-14.5,4.8,6.1-29.8,27.3-59.3,58.8-81.6,33.1-23.4,74.4-36.6,117.4-37.9-2.7,3.8-5.4,7.9-8,12.5-2.2,3.7-.9,8.5,2.9,10.7,1.2.7,2.6,1,3.9,1,2.7,0,5.3-1.4,6.8-3.9,15.2-26.3,31.1-35.9,44.7-42.7.5-.2.9-.5,1.3-.8,21.8-9.8,49.3-17.2,77.4-20.1,52.4-5.5,97.9,4.4,125,27.2.5.4,1,.8,1.6,1.1,20.4,18,27,34.9,31.6,49.4,1.1,3.3,4.1,5.4,7.4,5.4s1.6-.1,2.4-.4c4.1-1.3,6.4-5.7,5.1-9.8-4.8-15-11.4-30.9-26.9-47.4,21.1-5.7,64.5-16.3,109.1-8.2,56.6,10.4,97.5,47.7,121.6,110.9-21.5-1.8-41.3,2.9-55.8,11.5-3.1,1.8-5.9,3.6-8.5,5.4-18.8,6.7-34.6-1.8-47.3-8.6l-1.8-1c-3.8-2-8.5-.6-10.6,3.2-2,3.8-.6,8.5,3.2,10.6l1.8,1c9.1,4.9,21.3,11.5,35.8,12.8-5.4,7.5-7.3,14-7.8,18.3-.7,5.4.2,9.4,2.5,11.7,3.1,3,8,3,11,0,2.1-2.1,2.7-5.2,1.9-7.8-.1-1.7,0-12.4,18.7-26,.8-.4,1.5-.9,2.1-1.5,2.1-1.4,4.4-2.9,6.9-4.3,32.3-19,96.1-14.9,136.6,53.7,6.6,11.2,24.4,68.6,4.2,115.8-12.2,28.4-36.2,47.4-71.3,56.4-2.6-6.2-6-12.2-10.2-17.8-2.6-3.5-7.4-4.2-10.9-1.7-3.5,2.6-4.2,7.4-1.7,10.9,18.1,24.7,18.1,54.9-.1,80.8-32.3,45.9-76.4,53.4-107.7,51.7-33.4-1.9-58.1-14.9-60.8-19.9-.4-.7-.8-1.3-1.4-1.8-.2-1.2-.5-2.5-.7-3.6-1-4.2-5.3-6.7-9.4-5.7-4.2,1-6.7,5.3-5.7,9.4,3.6,14.5-1.7,37.4-13.7,59.9-13.8,25.8-34.4,48-58.1,62.7-25.1,15.5-52.1,22-80.4,19.2-30.6-3-62-16.9-93.3-41.4l49.8-22.6c3.9-1.8,5.7-6.4,3.9-10.3-1.8-3.9-6.4-5.7-10.3-3.9l-57.3,26c-32.7,14.9-59.7,16.5-78.3,4.6-17-10.9-23-30.8-23-44.5s-3.5-7.8-7.8-7.8-7.8,3.5-7.8,7.8c0,18.5,7.9,43.3,30.2,57.6,8.6,5.6,21,10.4,37.9,10.4s28.3-2.8,46.8-10.2c7.6,6.2,15.1,11.9,22.7,17-5.4,3.9-10.7,7.5-15.8,11-47.9,33-82.5,56.8-110.6,175-.5,2.1-.9,4.3-1.4,6.3-.8,4.2-1.6,8.2-2.9,11-4.2,9.6-10.4,15.3-17.6,16.1-7.8.7-16.1-4.3-22.7-14-3.7-5.3-14.5-31.4-19.4-64.3h0ZM146.3,358c.6-1.6,1.3-3.2,2-4.8,5.3-5,10.9-9.7,17-14,11.4-8.2,24.1-15.2,37.9-21.4-5.2,10.9-8.6,22.1-10.3,33.4-.2,1.2,0,2.3.3,3.4-16.6,7.4-31.3,16.3-44.1,26.8-3-8.4-4-16.2-2.8-23.4h0ZM318.6,218.2c-4.8,1.3-9.5,2.7-14.3,4.1-1.8.5-3.5,1.1-5.3,1.7,0-6,.4-12.1,1.4-18.2,6.1,3.7,12.2,7.9,18.2,12.3ZM304,190.9c1.1-3.4,2.3-6.8,3.7-10.2,2.8-6.7,6.1-13.1,9.9-19.2.1,1.2.2,2.3.4,3.5,1.6,12.3,4.2,25.7,8.1,40.6-7.3-5.4-14.7-10.4-22.1-14.7h0ZM551.7,160.7c-2.9,2.3-5.7,4.8-8.5,7.4-2.4,0-4.8,0-7.2,0,3.1-5.5,6.3-11.3,9.7-17.2,2.1,2.6,4.3,5.3,6.4,8-.1.6-.3,1.2-.5,1.7ZM519.8,169c-2.3.2-4.6.4-6.9.6-9.2,1-18.3,2.4-27.2,4.2-4.6-7.5-9.3-13.3-14.3-17.1,10.7-9.3,23-17.1,36.4-22.8,5.6-2.4,11.4-4.4,17.4-6.1,3.7,3.9,7.4,7.9,11.1,12.1-6,10.5-11.4,20.1-16.5,29.1h0ZM471.6,177c-8.5,2.2-16.7,4.7-24.5,7.5,4.3-6.5,9.1-12.6,14.4-18.2,3.6,2.3,7.1,6.3,10.1,10.8ZM502.8,120c-17.3,7.4-32.8,17.9-46,30.6-1.9-.1-3.9,0-5.9.4-17,3.4-30.2,26.6-39.4,50.2-.5.3-.9.6-1.4.9,7-24.2,22.3-47.8,45.6-70.3,11.2-10.8,23.3-19.1,36.1-24.7,7.5,2.4,14.5,5.2,20.9,8.4.2.2.3.3.5.5-3.6,1.2-7.1,2.6-10.5,4h0ZM433.2,97.6c13.4.6,26,2,37.5,4.2-8.4,5.2-16.5,11.5-24,18.8-27.5,26.5-44.8,55.1-51.4,85-5.4.3-10.7.8-16.1,1.3-6.7.4-13.4,1.3-20.2,2.7-5.6.9-11.2,1.9-16.8,3.1-6.6-23.4-11.5-46.9-12-68,26.1-30.2,64.9-48.9,103.1-47.1h0ZM331.4,122.6c1.6-9.7,4.7-18.4,9.6-25.8,12.3-18.7,35.3-28.2,70.3-29.1.8,0,1.6,0,2.3,0,20.3,0,41.2,6.4,62.1,19.1.6.4,1.3.8,1.9,1.2-13.4-2.9-28.2-4.7-44-5.4-36.9-1.7-74.2,13.8-102.3,40ZM135.2,346.6c-28.5,28.7-46.3,67.5-55.5,119.8-3.3,18.8-5.7,38.2-7.1,58.2,0,.2-.2.3-.3.5-9-14.4-16.3-29.7-21.9-45.8,16.5-49.5,45.9-96.8,87.5-138.8-1,2-2,4-2.8,6.2h0ZM94.4,464.8c6.3-33.8,16.1-60.9,30.4-83.1-1.4,7-2.2,13.9-2.3,20.7-.2,2.3-.4,4.7-.5,7-6.1,8.1-11.5,16.7-16.1,26-4.6,9.3-8.4,19.1-11.4,29.4h0ZM614.4,168.8c1.4,1.9,2.7,3.9,4,5.8,2.1,3.3,4.2,6.6,6.3,10-5.6-2.7-11.6-5-17.9-7.1,2.5-3.2,5-6.1,7.6-8.7ZM603.8,132.8c-1.3-1.4-2.6-2.9-4-4.3,3,.8,6.1,1.8,9.1,2.8-1.7.5-3.4,1-5.1,1.5h0ZM758,185.1c-11.4-5.7-20-8-26.9-7.4,0,0-.1,0-.2,0-.3,0-.7,0-1,.1-.1,0-.2,0-.4,0-.3,0-.5.1-.8.1-.2,0-.4,0-.5.1-.5-.5-1-1.2-1.7-2-1.4-3.6-7.3-8.5-8.2-9-.1,0-.3-.2-.4-.2-.6-.6-1.1-1.1-1.7-1.7-.6-.5-1.1-1.1-1.7-1.7-.6-.5-1.1-1.1-1.7-1.6-.6-.5-1.2-1.1-1.8-1.6-.5-.5-1.1-1-1.6-1.4-.6-.5-1.2-1.1-1.8-1.6-.5-.5-1.1-.9-1.6-1.3-.6-.5-1.2-1-1.8-1.5-.5-.4-1.1-.8-1.6-1.2-.6-.5-1.2-.9-1.8-1.4-.5-.4-1-.7-1.6-1.1-.6-.4-1.2-.9-1.8-1.3-.5-.4-1-.7-1.6-1-.6-.4-1.2-.8-1.8-1.2-.5-.3-1.1-.6-1.6-1-.6-.3-1.2-.7-1.8-1-.6-.3-1.1-.6-1.7-.9-.6-.3-1.1-.6-1.7-.9-.6-.3-1.1-.5-1.7-.8-.5-.3-1.1-.5-1.6-.8-.6-.3-1.1-.5-1.7-.7-.4-.2-.8-.3-1.2-.5,6,.7,12,1.8,17.9,3.1,3.9,1.2,7.9,2.6,11.9,4.2,19.7,8.1,39.8,21.3,58.9,38.6-3.9-.7-7.9-1.2-11.7-1.6h0ZM690.9,186.5c.4.4.8.9,1.2,1.3-13.6,2.3-25.3,5.2-33.8,7.4-1.8-.6-3.7-1.1-5.5-1.6,13.4-5.7,26.1-8.1,38-7.1h0ZM640.7,183c-.2,0-.3.2-.5.2-3.4-5.9-7-11.6-10.7-17.3-1.4-2.1-2.8-4.1-4.2-6.2,7.2-4.8,14.9-7.8,23.2-9,9.3,6.1,18.5,13.1,27.4,21.1-11.2,1.4-23.1,5.1-35.2,11.1h0ZM875.5,244.1c9.7,4,19,8.6,27.6,13.8-3.9,5.5-8,11.2-12.4,17-4.1-7.3-8.4-14.2-13-20.7-.6-3.4-1.3-6.7-2.1-10.1ZM932.4,719.5c.3,1.4.6,2.9.9,4.4.3,1.4.5,2.9.8,4.4-1.6-.1-3.1-.2-4.7-.4,1.1-2.8,2.1-5.6,3-8.4ZM928.8,641.4c-.2-1.1-.4-2.1-.6-3.2.9-.4,1.7-.7,2.6-1.1-.6,1.4-1.3,2.9-2,4.3h0ZM924.9,623.8c-1.6-6.5-3.6-13.5-5.9-21,.2-1.8.3-3.5.3-5.3,0-2.1,0-4.2,0-6.2,4,5.6,7.3,11.1,10.1,16.6.6,4.4,1.1,8.8,1.4,13.2-2,.9-3.9,1.8-5.9,2.7h0ZM916.8,720.9c-.7,2-1.5,4-2.3,6-.8,0-1.5,0-2.3-.1,1.6-1.9,3.1-3.9,4.6-5.9ZM903.4,686.7c1.8-6.4,3.4-12.9,4.8-19.6,1.4,1.9,2.8,3.8,4.1,5.8-2.9,4.8-5.8,9.4-8.9,13.8ZM912.9,696.9c.7-1,1.4-2,2.1-3-.2.5-.3,1.1-.5,1.6-.5.5-1,.9-1.6,1.4ZM911.5,648.5c.2-1.4.4-2.7.6-4.1,1.1-.4,2.2-.7,3.2-1.1.8,4.3,1.4,8.4,1.9,12.2-1.8-2.4-3.7-4.7-5.7-7h0ZM769.1,843.1c1.8,1.3,3.7,2.6,5.5,3.9-3.9,3-7.9,6-12,8.9,2.2-4.2,4.4-8.5,6.5-12.8h0ZM771.5,772.6c-.5-3.5-1.1-6.9-1.8-10.3,2-5.2,4-10.4,5.9-15.5,1.6-1.2,3.2-2.3,4.8-3.5,2,.3,4,.6,6.1.9-1.6,8.6-3.5,17.1-5.6,25.5-.4.4-.8.8-1.2,1.2-2.7.6-5.4,1.2-8.1,1.8h0ZM868,710c1-2.1,1.9-4.3,2.8-6.5,2,.6,3.9,1.2,5.9,1.8-1.5,4.9-3.1,9.8-5,14.7-1.8.7-3.7,1.3-5.6,1.9.7-4.1,1.4-8.1,1.9-12ZM876.2,689.6c2.3-6.7,4.3-13.6,5.9-20.5,1-.9,1.9-1.8,2.9-2.7-1,8.2-2.5,16.4-4.4,24.6-1.5-.4-2.9-.9-4.4-1.3ZM382.1,896.1c.9-1.9,1.8-3.7,2.7-5.5,2.6.4,5.1.7,7.7,1,10.6,8,21.6,15.3,32.8,21.5.7.6,1.4,1.2,2.1,1.7-3.3-.3-6.5-.5-9.8-.9-12.8-4.5-24.6-10.5-35.5-17.9h0ZM406.8,930.9c-1.3.4-2.6.7-3.9,1-4-.7-8-1.4-12-2.3,5.2.6,10.6,1,15.9,1.2h0ZM419.7,879.2c-2.3,0-4.5,0-6.8,0-.4-.6-.9-1.2-1.3-1.8,1.8,0,3.7.1,5.5.2.9.6,1.7,1.2,2.6,1.7h0ZM424.5,893.1c7.4-.1,14.9-.6,22.4-1.4,7.2,2.6,14.4,4.8,21.3,6.5-5.3,4.5-10.8,8.6-16.6,12.4-6.1-2.8-12.3-5.8-18.3-9.2-3-2.6-6-5.4-8.8-8.4h0ZM441.2,855.3c-5.9-4.7-11.8-9.6-17.5-14.6,4.7-4.1,9.7-8,14.8-11.8,2.5,1.1,5.1,2.2,7.7,3.2,3.6,2.8,7.2,5.4,10.8,8,1.4,5.9,2.8,11.6,4.2,17.1-6.7-.4-13.3-1-20-1.9h0ZM349,1000.6c1.9-4.4,2.9-9.3,3.9-14.2.4-1.9.8-3.9,1.2-5.8.4-1.6.8-3.2,1.2-4.8,2.1.5,4.3,1,6.5,1.5,6.2,14.2,14.6,26.8,24.8,37.3-12.9-3.2-25.7-7.3-38.4-12.1.3-.6.6-1.2.9-1.8h0ZM380.6,983.4c1.5,2.3,2.9,4.6,4.3,6.7-1.5-2.2-2.9-4.4-4.3-6.7ZM435,936.3c1.4-.6,2.8-1.3,4.2-2,10.3,2,21.1,3.1,32.2,3.5,1,.3,1.9.6,2.9.8-13.3-.3-26.5-1.1-39.3-2.4h0ZM473.8,851.8c1.3,2,2.7,4,4,5.9h-2.4c-.5-2-1.1-3.9-1.6-5.9h0ZM519.1,873.6c2.6,1,5.2,2,7.8,2.9-3,2.3-5.9,4.8-8.7,7.4-2.4-2.4-4.8-4.8-7.1-7.3,2.7-1,5.3-2,8-3h0ZM520.8,854.4c1.5-2.8,2.9-5.6,4.2-8.5,7.4,0,14.8-.3,22.2-1-4.5,2.5-9,4.8-13.5,7l-1.4.4c-3.8.8-7.7,1.5-11.6,2.1h0ZM548,862.5c.4,0,.7-.2,1.1-.3-2.3,1.3-4.6,2.6-7,4-1.1-.3-2.2-.7-3.3-1.1,3.1-.9,6.2-1.7,9.2-2.6h0ZM544.1,882.2c-1.1.5-2.3.9-3.4,1.3.8-.5,1.6-1.1,2.4-1.6.3.1.7.2,1,.3h0ZM568.8,888c8.1,1.5,16.2,2.6,24.3,3.2-14.9,6.3-30.8,11.5-47.6,15.4-2.2-1.5-4.3-3-6.4-4.6,10.3-4.6,20.3-9.3,29.8-14.1h0ZM560.9,871.4c2.8-1.4,5.7-2.8,8.5-4-.3.3-.6.5-1,.7-1.7,1.3-3.4,2.5-5.2,3.7-.8-.2-1.6-.3-2.4-.5h0ZM758.1,700.6c-1.1,3.8-2.2,7.6-3.4,11.4-1.7.3-3.5.5-5.2.7.7-4.5,1.3-9.1,1.8-13.6,2.2.6,4.5,1.1,6.8,1.5h0ZM745.4,772.7c-.7,1.5-1.4,3.1-2.1,4.5h-.2c.8-1.5,1.5-3,2.3-4.5h0ZM725.6,744.1c.8,0,1.6,0,2.5-.1-1.4,4.5-2.8,9-4.4,13.4-.1,0-.2,0-.3.1.9-4.5,1.7-8.9,2.3-13.4h0ZM729.7,854.2c6.4-4.6,12.5-9.6,18.4-14.9,1.4-.3,2.7-.6,4-.9-2.6,7.6-5.7,14.2-9.3,19.9-5.2.4-10.4.6-15.5.6.8-1.5,1.5-3.1,2.3-4.7h0ZM780.5,866c4.1-.9,8.2-1.9,12.3-3-5.4,6.5-11.1,12.7-17.3,18.5-10.2,6.1-20.7,11.7-31.5,16.8,12.7-9.3,24.9-20,36.5-32.3h0ZM786.7,837.4c-.3.3-.6.5-1,.8-3.2-2.2-6.4-4.4-9.6-6.7,7.6-2.7,15-5.8,22-9.3-3.8,5.3-7.6,10.4-11.5,15.3h0ZM814.6,830.9c-2.6,4.7-5.4,9.4-8.3,13.9-2.3.8-4.6,1.6-6.9,2.3-.4-.3-.9-.6-1.4-.9,5.7-4.9,11.3-10.1,16.6-15.4h0ZM781.4,814.6c1.6-4.2,3.1-8.4,4.6-12.7,13.3-8.2,25.5-17.4,36.3-27.6,2-.6,3.9-1.1,5.8-1.7-2.2,4.4-4.5,8.7-6.9,13-1.9,3.5-3.9,6.9-5.9,10.2-10.5,7.5-21.8,13.8-33.9,18.9h0ZM825.5,726.3c-.9,0-1.9,0-2.8,0,.1-.4.3-.8.4-1.2,2.8-9,4.9-18,6.2-26.7,3.2-.9,6.4-1.9,9.7-3.1-.1,3.6-.2,7.1-.4,10.6-4.1,6.9-8.5,13.6-13.1,20.3h0ZM840.4,807.4c1.3-3.3,2.6-6.8,4-10.4,7.4-9.7,14.1-19.8,20.2-30.2,2.7-3.5,5.3-7.2,7.8-11,10-4.9,18.4-10,25.7-15.6,3.6.1,7.1.3,10.5.4-7.2,15.3-16,30.2-26.5,44.7-10.8,14.9-22.9,29.1-36.3,42.3-3.9,2-7.8,3.9-11.6,5.7,2.3-8.3,4.4-17,6.3-26h0ZM893.4,793.6c12.2-17,22.3-34.4,30.3-52.2,4.1.3,8.1.6,12,.9.3,3.9.3,7.9.3,11.9-13.5,17.7-29.8,33.6-48.7,47.6,2.1-2.7,4.2-5.5,6.1-8.2h0ZM949.2,567.2c-1.2,12.8-3.2,24.9-6.1,36.1-1.5-10.1-3.6-20.2-6.3-30.3,4.3-1.8,8.5-3.7,12.5-5.8h0ZM963.6,558.2c1.6-1.2,3.2-2.4,4.7-3.6,3.3,1.3,6.5,2.7,9.7,4.1,1.8,9.9,3.1,19.8,3.9,29.6-8.1,6.8-16.7,13.1-25.6,18.8,3.9-14.9,6.3-31.3,7.4-48.9h0ZM980.9,318.4c9.2,12.7,10.9,31.2,5.4,54.4-4.6-6.7-9.4-12.7-14.4-18.1.6-2.2,1-4.4,1.4-6.7,2.1-13.6,0-27.7-6-41.4,5.5,3,10.1,6.9,13.6,11.8h0ZM948.8,300.6c8.7,14,12.7,28.6,11.3,42.7-16.6-14.4-34.5-23-51.9-27.1.1-1.1,0-2.3-.4-3.5-1-2.8-2.1-5.6-3.1-8.3,16.3-4.6,31.3-5.8,44.1-3.8h0ZM936.7,284.9c-11.8,0-24.6,1.8-37.9,5.8-.4-.9-.9-1.8-1.3-2.7,6-7.8,11.7-15.4,16.9-22.7,8.6,6.1,16,12.7,22.3,19.6h0ZM821.5,117.8c59.7,13.5,116.1,26.2,122.8,41.4,4.5,10.5-.4,30.2-14,55.6-5.3,9.9-11.8,20.6-19.4,31.9-12.2-7.5-25.6-13.8-39.8-18.8-3.8-12.2-8.6-24.5-14.3-36.7-13.1-27.8-31.5-54.8-53.2-77.4,6.1,1.4,12.1,2.7,17.9,4h0ZM745.1,85.6c-18.6-4.8-37.3-10.1-55.7-16,18.8.2,37.7,6.1,55.7,16ZM660.4,73.9c37.9,13.9,78.4,24.6,115.9,33.5,28.1,23.9,52.3,56.7,68.3,90.6,2,4.3,3.9,8.6,5.7,12.9-5.7-2.7-12.9-3.5-21.7-2.7-7.1-4.3-14.6-8-22.3-11.2-19.5-31.6-57.4-56.7-102.9-67.2-13.2-4.1-26.2-5.8-38.4-5.1-4.8-.2-9.6-.1-14.3,0-14.4-10.2-28.8-18.6-43-25.1,14.6-11.1,32.3-19.7,52.8-25.7h0ZM595.1,110.5c2.5,1,5,2.1,7.5,3.3-2.9-.8-5.8-1.5-8.6-2.1.4-.4.8-.8,1.2-1.2h0ZM599.8,149.9c1.2,1.5,2.5,3,3.7,4.5-4,4.3-7.9,9-11.4,14.1-1,1.4-2,2.9-2.9,4.3-3.7-.8-7.4-1.5-11.2-2.1-.8-1.2-1.7-2.3-2.5-3.4-.5-1.5-1-3-1.5-4.5,8.1-5.1,16.9-9.5,25.9-12.9h0ZM580.4,105.1c-.7.7-1.3,1.5-2,2.3-1.6-1.4-3.2-2.9-4.8-4.3,2.2.6,4.5,1.3,6.8,2ZM580.2,128.7c3.1,3.1,6.2,6.2,9.2,9.4-6.6,2.8-13,6-19.1,9.7,2.7-6.7,6.1-13.1,10-19.1h0ZM561.6,123.1c1.8,0,3.7,0,5.5.1-2.6,4.2-4.9,8.7-7,13.2-1.1-1.6-2.3-3.1-3.5-4.6,1.7-3,3.4-5.9,5-8.8h0ZM544.8,98.1c3.6,2.7,7.1,5.5,10.6,8.4l-1,1.8c-7,.3-14,1.1-20.9,2.4-5-3.4-10.5-6.5-16.3-9.4-.6-.5-1.1-1-1.7-1.5,9.4-1.8,19.2-2.3,29.3-1.7h0ZM308.7,55.1c38.6-29.1,96.2-29.3,162.2-.6,18,7.8,35.9,17.6,53.2,29-7.8.8-15.5,2.3-22.9,4.5-6.8-5.2-13.6-9.9-20.4-13.9-23.4-13.8-46.9-20.6-69.8-20-39.8,1-66.4,12.5-81.4,35.2-8.6,13-12.9,29.3-13.2,49.5-8.6,10.8-15.9,22.8-21.2,35.7-1.3,3.2-2.5,6.4-3.6,9.6-12.9-6.6-26-11.7-39-15.1,9.7-52.8,30.1-94.2,56.1-113.8h0ZM248.5,197.8h0c.5-4.7,1.1-9.4,1.7-14,12.5,3.3,25.1,8.4,37.5,14.9-2.1,10.1-2.9,20.2-2.4,30.1-9,3.3-17.9,6.9-26.7,10.9-4.1.3-8.1.6-12.1.9-.2-14.1.5-28.4,2-42.8h0ZM236.8,180.8c-.7,5-1.4,10.2-1.9,15.4-.7,6.4-1.2,12.8-1.5,19.1-2.4-13-5.6-25.1-9.6-36.1,4.3.4,8.7.9,13,1.7h0ZM222.2,242.2c-17.8,1.1-61.4,3.5-69.5-1.6-12.6-8-23.6-17.2-33-27.1,6.8-5.6,13.9-10.6,21.3-15,21.1-12.5,43.5-19.1,66.7-19.9,7.3,18.1,12.2,39.3,14.5,63.5h0ZM78.3,98.6c3.1-16.1,11.1-26.6,21.8-28.5,5-.9,15.9-.8,32.2,10.5,19.9,13.7,41.6,39.4,64.5,76.4,1.4,2.3,2.8,4.6,4.1,7.1-22.9,1.7-45.2,8.9-66.4,21.4-8.5,5-16.6,10.8-24.3,17.2-27.4-34.4-37.6-74.9-32-104h0ZM108.7,223.3c10.3,10.9,22.3,21.1,36.1,29.8h0c8.8,5.6,31.6,6.7,78.5,3.9,0,.2,0,.4,0,.5-29.6,16.8-57.5,37.2-82.8,60.8-43.3,40.4-76.3,87.9-96.5,138.7-1.8-7.9-3.3-15.9-4.3-24.1-10.1-78.6,18.1-160.4,69-209.5h0ZM37.8,615.6c-5.5-38.3-3.3-76.8,6.1-114.3,5.6,13.1,12.3,25.5,20.2,37.4-7.1,12.8-13,26.5-17.6,40.8-3.8,11.8-6.7,23.9-8.8,36.2ZM59.5,584.4c3.1-9.6,7-19.1,11.6-28.4-.1,5.4-.2,10.8-.2,16.3-1.7,13.5-2.6,27.3-2.6,41,0,43.7,7.1,87.4,21.2,130.1-14-18.9-25.1-38.5-33-58.3-3.1-7.8-5.9-15.7-8.3-23.6-.4-26,3.3-52.2,11.3-77.1h0ZM54.7,714.8c12,22.7,28,44.8,47.7,65.9,5.6,17.7,11.9,34.6,18.7,50.8-33-29.7-55.9-71.4-66.4-116.7ZM116.7,775.4c-1.8-4.1-3.5-8.2-5-12.2-17.5-59.7-26.7-125.3-26.7-189.7.3-2.4.7-4.8,1-7.1,1.6,1.8,3.2,3.5,4.9,5.2,3.8,21.1,8.9,36,10.9,41.3,5,13.4,12.4,31.2,23.9,47.5,2,16.3,5.3,32.4,9.9,48,6.6,40.9,19.2,79.4,37.3,114.9-20.8-14.8-39.6-30.9-56-48h0ZM134,810.9c16.5,14.2,34.7,27.4,54.1,39.6,5.1,8.2,10.5,16,16.2,23.5-13.3-2.8-26-7-38.2-12.6-11.8-16-22.6-32.9-32.2-50.5h0ZM157.2,873.3c.1,0,.3.1.4.2,31.5,41.8,69.5,77.3,112.3,104.8,2.7,8.2,5.4,15.1,7.9,20.1-8.7-5-17.1-10.3-25.1-15.9-37.2-25.9-69.1-62.5-95.4-109.3h0ZM426.8,1045.5c-25.7-2.4-52.1-7.8-77.7-15.9,21.2,3.2,43.8,5.5,66.7,6.7,8.2,4.3,16.9,7.7,26.1,10.2-5-.2-10.1-.6-15.2-1h0ZM560.6,1008.4c-21,7-42.6,11.7-64.5,14-18.1.9-36.7,1.2-55.2.8,12-7,21.4-24.2,31.9-45.1,6.5-1.2,13.1-2.6,19.6-4.2,8-2,15.9-4.2,23.8-6.7,4.6,4.5,9.3,8.5,14.2,12,13.8,9.8,29.2,15.6,45.9,17.4-5.1,4.3-10.4,8.2-15.8,11.8h0ZM538.4,968c-2.5-1.8-5-3.7-7.4-5.8,10.6-3.8,21.1-8,31.3-12.7,14.7.7,29.6.4,44.6-.7,3.7.7,7.4,1.4,11.1,1.9-8.2,12.1-17.3,23-27.1,32.8-19.6.5-37.2-4.7-52.4-15.4h0ZM633.9,952.1c1,0,2,0,3,.1.2,3.3.4,6.6.7,9.7-3.8,5.4-7.8,10.5-12.1,15.4-4.1,1.3-8.2,2.4-12.2,3.2,7.3-8.8,14.1-18.2,20.5-28.5h0ZM618,1005.2c5-4.5,9.8-9.2,14.4-14.2,2.9-1.7,5.8-3.5,8.7-5.3.9,4.3,1.9,8.4,3.1,12.3-8.5,2.6-17.2,5-26.2,7.2h0ZM690.7,1041.8h0s-6.4,2.1-22.1-22.1c-2.4-3.8-4.6-7.9-6.6-12.4,13.9-4.7,27.1-10,39.5-15.7-1.5,41.5-8.1,49-10.8,50.3h0ZM701.8,975.6c-13.8,6.7-28.7,12.8-44.6,18.2-1.5-5.1-2.7-10.5-3.7-16.3,5.6-3.9,11.2-7.9,16.7-12.1,8.4-6.4,16.5-13.3,24.2-20.5,2.3-.7,4.6-1.4,6.8-2.1.5,12.4.7,23.3.7,32.8h0ZM720.9,871.8c3.8.1,7.7.1,11.5,0-3.5,3.6-7,6.7-10.6,9.3-2.6,1.4-5.2,2.8-7.8,4.1,2.3-4.4,4.6-8.9,7-13.4h0ZM765.5,932.8c-13.9,13.1-30.6,25-49.9,35.6,0-9.2-.3-19.3-.8-30.6,9.7-3.9,19.1-8.6,28.3-14,8.2,2.8,16.8,4.8,25.3,6-1,1-2,2-3,2.9h0ZM780.4,916.2c-3-.2-6-.5-9.1-.9-3.9-.5-7.8-1.2-11.7-2.1,9.5-6.8,18.4-14.2,26.7-22.3,5.1-3.1,10.2-6.3,15.2-9.7-6.3,13.2-13.4,24.9-21.1,34.9h0ZM797.9,916c8.1-12,15.4-25.7,21.8-41,7.5,4.1,14.9,7.7,22.2,10.9,6.6,2.9,13.1,5.6,19.5,7.9-19.4,12.9-41.1,20.4-63.5,22.2h0ZM874.6,883.9c-8.8-2.8-17.9-6.3-27.2-10.4-6.9-3.1-13.9-6.5-21-10.4,10-7.9,19.4-16.2,28.3-24.8,3.4-1.8,6.9-3.7,10.3-5.6,26.8-15.3,49.8-33.6,68.8-54.5-5.6,34.4-21.9,68.3-46.7,94.2-4,4.2-8.1,8-12.4,11.6h0ZM1044.7,781.4c.7,1.4,1.2,2.9,1.6,4.4,4.6,16.5-5.6,38.8-30.4,66.3h0c-32.3,35.9-74.2,48-124.8,36.3,1.8-1.8,3.7-3.5,5.4-5.4,32.1-33.5,51.1-79.4,52.9-124.1,3.4-4.6,6.6-9.3,9.6-14.1,48.3,6.4,77.1,18.7,85.6,36.6ZM946.9,721.6c3.1.5,6.2.8,9.2,1.2-1.3,2.4-2.6,4.8-3.9,7.1-1.3-.1-2.7-.3-4.1-.4-.4-2.6-.8-5.3-1.3-7.9h0ZM963.2,708.2c-6.5-.6-13.2-1.5-20.2-2.6-1.1-3.5-2.3-7.1-3.6-10.5.7-3.2,1.4-6.5,2.1-9.7,7.8-12.9,14.9-32.7,9.5-58.2,11.1-6.2,21.7-13.2,31.8-21,.4,19-1.2,37.5-4.7,55.1h0c-3.3,16.3-8.2,32-14.8,46.9Z"></path><g><path class="st2" d="M387.6,589.2h-5.2c-1.3,0-2.3,1-2.3,2.3v1.9c0,2-2.4,3-3.9,1.6-5.1-4.8-11.5-7.6-18.8-7.6-17.6,0-32.2,14.8-32.2,34s14.7,33.6,32.2,33.6,13.8-2.7,18.9-7.4c1.5-1.4,3.8-.3,3.8,1.7v13.4c0,4.6-2.5,6.8-6.6,6.8h-35.4c-1.3,0-2.3,1-2.3,2.3v4.2c0,1.3,1,2.3,2.3,2.3h34.8c11.7,0,17-6.3,17-15v-71.7c0-1.3-1-2.3-2.3-2.3h0ZM380.1,631.3c0,.4,0,.8-.3,1.2-4.4,7.6-12.7,13.2-22.4,13.2s-22.2-10.1-22.2-24.3,9.9-24.7,22.2-24.7,17.8,5.7,22.4,13.6c.2.4.3.8.3,1.2v19.8h0Z"></path><path class="st2" d="M417.3,608.8v42c0,1.3-1,2.3-2.3,2.3h-5.2c-1.3,0-2.3-1-2.3-2.3v-59.3c0-1.3,1-2.3,2.3-2.3h5.2c1.3,0,2.3,1,2.3,2.3h0c0,1.8,2.1,3,3.6,1.9,4.4-3.1,9.8-5.4,16.2-5.9,1.3,0,2.4,1,2.4,2.3v5.9c0,1.2-1,2.2-2.2,2.3-9.4.6-16.1,5-19.5,9.3-.3.4-.5.9-.5,1.4h0Z"></path><path class="st2" d="M480.5,587.4c-19.8,0-35.1,15-35.1,33.6s15.3,34,35.1,34,35.1-15.2,35.1-34-15.2-33.6-35.1-33.6h0ZM480.5,645.7c-14.5,0-25.1-10.8-25.1-24.7s10.5-24.3,25.1-24.3,25.1,10.7,25.1,24.3-10.5,24.7-25.1,24.7Z"></path><path class="st2" d="M575.6,649.4c0-2-2.4-3-3.9-1.6-3.1,3-6.6,5.6-10.9,6.4-20.8,4-33.6-7.8-33.6-25.5v-37.2c0-1.3,1-2.3,2.3-2.3h5.2c1.3,0,2.3,1,2.3,2.3v36.3c0,10,5.3,17.9,17,17.9s17.4-6.1,21.2-11.7c.3-.4.4-.8.4-1.3v-41.3c0-1.3,1-2.3,2.3-2.3h5.2c1.3,0,2.3,1,2.3,2.3v59.3c0,1.3-1,2.3-2.3,2.3h-5.2c-1.3,0-2.3-1-2.3-2.3v-1.4h0Z"></path><path class="st2" d="M635.5,587.4c-7.3,0-13.7,2.8-18.8,7.6-1.5,1.4-3.9.4-3.9-1.6v-1.9c0-1.3-1-2.3-2.3-2.3h-5.2c-1.3,0-2.3,1-2.3,2.3v84.4c0,1.3,1,2.3,2.3,2.3h5.2c1.3,0,2.3-1,2.3-2.3v-26.7c0-2,2.4-3,3.8-1.7,5.1,4.7,11.6,7.4,18.9,7.4,17.6,0,32.2-14.7,32.2-33.6s-14.7-34-32.2-34h0ZM635.5,645.7c-9.7,0-18-5.6-22.4-13.2-.2-.4-.3-.8-.3-1.2v-19.8c0-.4.1-.8.3-1.2,4.6-7.9,12.7-13.6,22.4-13.6s22.2,10.3,22.2,24.7-9.9,24.3-22.2,24.3h0Z"></path><g><path class="st2" d="M338.8,327.3v37.4c0,1.2-1,2.2-2.2,2.2h-3c-1.2,0-2.2-1-2.2-2.2v-37.4c0-1.2-1-2.2-2.2-2.2h-5.8c-1.2,0-2.2-1-2.2-2.2v-2.2c0-1.2,1-2.2,2.2-2.2h5.8c1.2,0,2.2-1,2.2-2.2v-9.3c0-1.2,1-2.2,2.2-2.2h3c1.2,0,2.2,1,2.2,2.2v9.3c0,1.2,1,2.2,2.2,2.2h5.9c1.2,0,2.2,1,2.2,2.2v2.2c0,1.2-1,2.2-2.2,2.2h-5.9c-1.2,0-2.2,1-2.2,2.2Z"></path><path class="st2" d="M367.9,333.7v31c0,1.2-1,2.2-2.2,2.2h-3c-1.2,0-2.2-1-2.2-2.2v-66.9c0-1.2,1-2.2,2.2-2.2h3c1.2,0,2.2,1,2.2,2.2v21.9c0,1.8,2.1,2.8,3.6,1.7,3.5-2.7,8-4.4,12.8-4.4,13.2,0,20.7,8.8,20.7,21.4v26.2c0,1.2-1,2.2-2.2,2.2h-3c-1.2,0-2.2-1-2.2-2.2v-25.8c0-8.4-3.9-14.7-13.7-14.7s-13,4.2-15.7,8.4c-.2.3-.3.7-.3,1.2h0Z"></path><path class="st2" d="M424.6,343.7h37.3c1.3,0,2.3-1.1,2.2-2.4-1-13.7-10.5-24.2-24.2-24.2s-25.2,11-25.2,25.2,10.9,26.1,25.4,26.1,17.9-4.6,22-13.6c.7-1.4-.4-3.1-2-3.1h-2.9c-.8,0-1.6.5-2,1.2-3.1,5.6-9.4,8.5-15.2,8.5-9.2,0-16.1-5.7-17.7-15-.2-1.4.8-2.6,2.2-2.6h0ZM423.7,334.2c2.8-6.3,8.8-10.1,16.2-10.1s12.8,3.9,15.1,10.2c.5,1.4-.6,2.9-2.1,2.9h-27.1c-1.6,0-2.7-1.6-2-3h0Z"></path></g><g><path class="st2" d="M317.3,550.1c-43.4,0-74.5-31.7-74.5-73.2s30.8-73,73.6-73,62.1,19.9,71.3,52h-31c-6-14.8-21-25.7-39.8-25.7s-44.7,19.7-44.7,46.9,18.6,47.1,45.6,47.1,37.9-12.6,43.9-30.8h-39.6v-21.2h67.4c.2.7.4,5.1.4,6.2,0,40.5-32.1,71.7-72.6,71.7h0Z"></path><rect class="st2" x="407.3" y="406.5" width="26.8" height="140.8"></rect><rect class="st2" x="454.7" y="450.8" width="26.8" height="96.5"></rect><path class="st2" d="M528,483.5v63.8h-26.8v-96.5h26.8v16.3c7.5-11.4,20.5-19,34-19,21.4,0,34.4,14.5,34.4,36.6v62.5h-26.8v-55.2c0-11.4-5.8-19.9-18.8-19.9s-18.2,5.8-22.7,11.3h0Z"></path><path class="st2" d="M685.8,406.5v60.4c-7.3-11.8-19-18.8-32.3-18.8-25,0-44.7,21.8-44.7,50.7s19.7,51.2,44.7,51.2,25-6.9,32.3-19v16.1h26.1v-140.8h-26.1ZM685.8,510c-4.5,8.6-14.3,16-25.9,16s-24.8-11.1-24.8-27,11.1-26.7,24.8-26.7,21.2,7.3,25.9,16v21.8h0Z"></path><path class="st2" d="M795.1,450.8v16.1c-7.3-11.8-19-18.8-32.3-18.8-25,0-44.7,21.8-44.7,50.7s19.7,51.2,44.7,51.2,25-6.9,32.3-19v16.1h26.1v-96.5h-26.1ZM795.1,510c-4.5,8.6-14.3,16-25.9,16s-24.8-11.1-24.8-27,11.1-26.7,24.8-26.7,21.2,7.3,25.9,16v21.8h0Z"></path></g><path class="st2" d="M476,384.2v16c15.2-14.3,15.8-8.2,6.9,6.8h9.2s0,6.9,0,6.9l-6.9,1.2,6.9,9.1c-5.3,7.7-9.6-1.7-16-1.1v13.7c-9.1.3-6.8-9.7-6.9-16l-16,11.4c-1.7-7.8,6.4-10.3,9.1-16-4.5-1.8-15.7,5.1-18.3-1.2-2.5-5.9,15-4.8,16-5.7,1.9-5-9-10.6-9.1-12.6-.4-9.9,17.4,6.9,18.2,5.7l.4-14.5,6.5-3.8h0Z"></path></g><metadata></metadata></svg>